#!OML:ASF H:\GeneralSubjects\Female5\Project 1\Capture day 1\Session 1\Female5.ASF
:FULLY-SPECIFIED
:DEGREES
525
root -23.8317 16.1407 -4.30454 -178.651 -63.5513 -173.952
lowerback 6.24474 1.26624 -1.2907
upperback -10.292 1.31612 1.5176
thorax -14.9515 0.70398 2.21038
lowerneck -15.1946 -5.33842 -7.03381
upperneck 30.3195 -7.68474 2.69984
head 13.061 -4.24158 0.945506
rclavicle 5.50074e-014 3.26504e-014
rhumerus -45.933 17.4368 -82.0506
rradius 26.8309
rwrist -21.9643
rhand -27.8398 -18.4705
rfingers 7.12502
rthumb -1.23115 -48.4467
lclavicle 5.50074e-014 3.26504e-014
lhumerus -44.1455 7.83837 71.8389
lradius 24.2486
lwrist -13.0239
lhand -27.9626 35.8187
lfingers 7.12502
lthumb -1.34976 65.7941
rfemur -5.7986 22.6112 24.5129
rtibia -0.865355
rfoot -17.3465 -22.9535
rtoes -0.312178
lfemur 4.11683 -19.0669 -24.2008
ltibia 7.11806
lfoot -22.4352 14.6428
ltoes -67.3923
526
root -23.8408 16.1529 -4.46973 -180.317 -64.6301 -172.445
lowerback 6.14497 1.21533 -1.38172
upperback -10.2994 1.26951 1.8055
thorax -14.9078 0.713962 2.59283
lowerneck -15.3789 -5.37787 -6.96457
upperneck 30.3949 -7.75123 2.73362
head 13.1339 -4.2512 0.930284
rclavicle -8.32411e-015 1.81143e-014
rhumerus -45.7191 18.125 -82.0804
rradius 27.9189
rwrist -23.2813
rhand -27.5109 -18.7068
rfingers 7.12502
rthumb -0.91355 -48.6846
lclavicle -8.32411e-015 1.81143e-014
lhumerus -45.6486 10.3529 68.1775
lradius 22.9936
lwrist -14.7141
lhand -27.958 36.1927
lfingers 7.12502
lthumb -1.34539 66.1682
rfemur -3.34315 25.2331 26.3415
rtibia -3.0616
rfoot -19.6048 -25.9583
rtoes 2.15001
lfemur 2.29114 -15.045 -21.5442
ltibia 10.0035
lfoot -19.9164 10.624
ltoes -67.6059
527
root -23.8452 16.1556 -4.63258 -182.14 -65.7369 -170.754
lowerback 6.07236 1.1348 -1.41717
upperback -10.3044 1.18723 2.07186
thorax -14.873 0.699341 2.92665
lowerneck -15.5522 -5.4522 -6.9344
upperneck 30.4158 -7.84538 2.74929
head 13.1847 -4.27799 0.910977
rclavicle -5.46099e-014 8.77137e-015
rhumerus -45.484 18.9492 -82.1935
rradius 28.875
rwrist -23.807
rhand -27.1834 -19.0767
rfingers 7.12502
rthumb -0.597203 -49.0556
lclavicle -5.46099e-014 8.77137e-015
lhumerus -47.1217 12.542 64.431
lradius 21.7969
lwrist -16.721
lhand -28.0532 36.393
lfingers 7.12502
lthumb -1.43729 66.3679
rfemur -0.914011 28.365 28.3534
rtibia -5.04147
rfoot -22.7201 -29.189
rtoes 5.077
lfemur 0.145273 -10.7359 -18.7906
ltibia 13.4991
lfoot -16.9631 6.64321
ltoes -67.7554
528
root -23.8454 16.1476 -4.79245 -184.137 -66.8656 -168.873
lowerback 6.02848 1.02546 -1.39505
upperback -10.2968 1.07141 2.31556
thorax -14.8353 0.66096 3.20865
lowerneck -15.7231 -5.56222 -6.96263
upperneck 30.3829 -7.96255 2.7513
head 13.2164 -4.32129 0.89296
rclavicle 5.34234e-015 -1.80894e-014
rhumerus -45.2026 19.8694 -82.3462
rradius 29.6575
rwrist -23.5781
rhand -26.9224 -19.448
rfingers 7.12502
rthumb -0.345168 -49.4275
lclavicle 5.34234e-015 -1.80894e-014
lhumerus -48.5349 14.421 60.6889
lradius 20.7
lwrist -19.0408
lhand -28.1817 36.5183
lfingers 7.12502
lthumb -1.56136 66.4923
rfemur 1.47718 31.8962 30.5689
rtibia -6.69354
rfoot -26.7267 -32.4991
rtoes 8.12859
lfemur -2.30321 -6.25003 -16.0326
ltibia 17.6283
lfoot -13.7358 2.91388
ltoes -67.9388
529
root -23.8411 16.1278 -4.94926 -186.368 -68.0035 -166.746
lowerback 6.01988 0.89055 -1.31164
upperback -10.2734 0.928237 2.54586
thorax -14.7957 0.602069 3.44578
lowerneck -15.8875 -5.70595 -7.06447
upperneck 30.2885 -8.09742 2.74934
head 13.226 -4.37915 0.883579
rclavicle 4.04014e-015 2.85753e-016
rhumerus -44.866 20.8714 -82.505
rradius 30.2478
rwrist -22.7552
rhand -26.7211 -19.6747
rfingers 7.12502
rthumb -0.150728 -49.6544
lclavicle 4.04014e-015 2.85753e-016
lhumerus -49.876 15.9844 57.0767
lradius 19.7724
lwrist -21.5936
lhand -28.2791 36.6667
lfingers 7.12502
lthumb -1.65543 66.64
rfemur 3.61102 30.7184 32.6371
rtibia -8.69228
rfoot -27.5123 -32.0736
rtoes 10.8877
lfemur -5.0202 -1.7719 -13.3373
ltibia 22.3109
lfoot -10.5794 -0.310172
ltoes -68.3136
530
root -23.8322 16.0953 -5.10334 -189.029 -69.117 -164.162
lowerback 6.05341 0.736792 -1.12226
upperback -10.239 0.775041 2.78874
thorax -14.7655 0.527592 3.63908
lowerneck -16.0578 -5.87295 -7.22327
upperneck 30.1615 -8.24318 2.74648
head 13.2272 -4.44692 0.881484
rclavicle 1.81205e-014 -5.47528e-014
rhumerus -44.4725 21.9308 -82.6289
rradius 30.6556
rwrist -21.5449
rhand -26.509 -19.714
rfingers 7.12502
rthumb 0.0541079 -49.6937
lclavicle 1.81205e-014 -5.47528e-014
lhumerus -51.1196 17.1658 53.7823
lradius 19.0695
lwrist -24.1394
lhand -28.3424 36.8771
lfingers 7.12502
lthumb -1.71659 66.8499
rfemur 5.09767 29.4712 34.5059
rtibia -10.1435
rfoot -27.4096 -32.2311
rtoes 11.0451
lfemur -7.96207 2.53739 -10.6907
ltibia 27.3599
lfoot -7.92373 -2.63026
ltoes -68.947
